<svg width="22" height="22" viewBox="0 0 22 22" fill="none" xmlns="http://www.w3.org/2000/svg">
<path d="M2.70703 18.0488C2.70703 17.5504 3.11107 17.1464 3.60947 17.1464H18.0485C18.5469 17.1464 18.9509 17.5504 18.9509 18.0488C18.9509 18.5472 18.5469 18.9512 18.0485 18.9512H3.60947C3.11107 18.9512 2.70703 18.5472 2.70703 18.0488Z" fill="black" fill-opacity="0.6"/>
<path d="M13.9839 12.6342H7.67406L6.45706 15.6767C6.32002 16.0193 5.98819 16.2439 5.61919 16.2439C4.98077 16.2439 4.54422 15.5991 4.78132 15.0064L9.69963 3.27462C9.83668 2.932 10.1685 2.70734 10.5375 2.70734H11.1204C11.4895 2.70734 11.8213 2.932 11.9583 3.27462L16.8766 15.0064C17.1137 15.5991 16.6772 16.2439 16.0388 16.2439C15.6698 16.2439 15.3379 16.0193 15.2009 15.6767L13.9839 12.6342ZM13.262 10.8293L10.829 5.31087L8.39601 10.8293H13.262Z" fill="black" fill-opacity="0.6"/>
</svg>
