<svg width="25" height="24" viewBox="0 0 25 24" fill="none" xmlns="http://www.w3.org/2000/svg">
<path d="M1.5 15C1.5 13.8533 1.78 12.7867 2.34 11.8C2.88667 10.84 3.62667 10.0667 4.56 9.48C4.73333 8.18667 5.19 7.00667 5.93 5.94C6.67 4.87333 7.60667 4.04 8.74 3.44C9.91333 2.81333 11.1667 2.5 12.5 2.5C13.8333 2.5 15.0867 2.81333 16.26 3.44C17.3933 4.04 18.33 4.87333 19.07 5.94C19.81 7.00667 20.2667 8.18667 20.44 9.48C21.3733 10.0667 22.1133 10.84 22.66 11.8C23.22 12.7867 23.5 13.8467 23.5 14.98C23.5 16.1133 23.2333 17.1667 22.7 18.14C22.1667 19.0867 21.4433 19.86 20.53 20.46C19.6167 21.06 18.6067 21.4 17.5 21.48L7.5 21.5C6.39333 21.4067 5.38333 21.06 4.47 20.46C3.55667 19.86 2.83333 19.0867 2.3 18.14C1.76667 17.1667 1.5 16.12 1.5 15ZM17.34 19.48C18.1133 19.4267 18.8167 19.1933 19.45 18.78C20.0833 18.3667 20.5833 17.8267 20.95 17.16C21.3167 16.4933 21.5 15.77 21.5 14.99C21.5 14.21 21.31 13.4833 20.93 12.81C20.55 12.1367 20.0333 11.5933 19.38 11.18L18.58 10.68L18.46 9.74C18.3267 8.75333 17.98 7.86333 17.42 7.07C16.86 6.27667 16.15 5.65 15.29 5.19C14.43 4.73 13.5 4.5 12.5 4.5C11.5 4.5 10.57 4.73 9.71 5.19C8.85 5.65 8.14 6.27667 7.58 7.07C7.02 7.86333 6.67333 8.75333 6.54 9.74L6.42 10.68L5.62 11.18C4.96667 11.5933 4.45 12.1367 4.07 12.81C3.69 13.4833 3.5 14.21 3.5 14.99C3.5 15.77 3.68333 16.4933 4.05 17.16C4.41667 17.8267 4.91667 18.3667 5.55 18.78C6.18333 19.1933 6.88667 19.4267 7.66 19.48L7.82 19.5H17.18L17.34 19.48ZM13.5 13.5V17.5H11.5V13.5H8.5L12.5 8.5L16.5 13.5H13.5Z" fill="black" fill-opacity="0.38"/>
</svg>
